<svg width="285" height="203" viewBox="0 0 285 203" fill="none" xmlns="http://www.w3.org/2000/svg">
<g clip-path="url(#clip0_834_8569)">
<path d="M1.18848 111.528L152.478 202.208L265.414 139.455V90.1172L109.955 0.994141L1.36583 64.7036L1.18848 111.528Z" fill="white"/>
<path d="M152.478 202.601C152.408 202.601 152.339 202.583 152.277 202.545L0.986983 111.866C0.868096 111.795 0.795508 111.666 0.7959 111.527L0.97325 64.7022C0.973643 64.563 1.04741 64.4345 1.16747 64.3645L109.756 0.654995C109.878 0.583828 110.028 0.583042 110.15 0.653029L265.609 89.7761C265.731 89.846 265.806 89.9762 265.806 90.1173V139.455C265.806 139.599 265.729 139.73 265.604 139.8L152.668 202.552C152.609 202.585 152.543 202.602 152.478 202.602L152.478 202.601ZM1.58142 111.306L152.486 201.754L265.022 139.224V90.345L109.957 1.44844L1.7572 64.9295L1.58142 111.306Z" fill="#082930"/>
<path d="M265.414 139.455L152.478 202.208L152.449 155.251L265.414 90.1172V139.455Z" fill="#082930"/>
<path d="M152.478 202.601C152.409 202.601 152.34 202.583 152.279 202.547C152.159 202.477 152.086 202.348 152.086 202.208L152.056 155.251C152.056 155.111 152.131 154.981 152.253 154.911L265.218 89.7766C265.34 89.7066 265.489 89.7066 265.61 89.7766C265.732 89.847 265.806 89.9767 265.806 90.1171V139.455C265.806 139.598 265.729 139.73 265.604 139.799L152.668 202.552C152.609 202.585 152.543 202.601 152.478 202.601H152.478ZM152.841 155.479L152.87 201.541L265.022 139.224V90.7973L152.841 155.479H152.841Z" fill="#082930"/>
<path d="M173.327 168.441C173.191 168.441 173.059 168.37 172.986 168.244C172.878 168.056 172.943 167.815 173.131 167.707L257.733 118.927C257.921 118.819 258.161 118.883 258.269 119.072C258.377 119.26 258.312 119.5 258.124 119.608L173.522 168.389C173.46 168.424 173.393 168.441 173.327 168.441L173.327 168.441Z" fill="white"/>
<path d="M171.462 178.132C171.326 178.132 171.194 178.061 171.122 177.935C171.014 177.746 171.078 177.506 171.266 177.398L244.538 135.15C244.726 135.042 244.966 135.107 245.074 135.295C245.182 135.483 245.117 135.724 244.93 135.832L171.657 178.079C171.596 178.115 171.528 178.132 171.462 178.132L171.462 178.132Z" fill="white"/>
<path d="M109.955 1.229L1.36572 64.9385L152.449 155.486L265.414 90.3516L109.955 1.229Z" fill="white"/>
<path d="M152.449 155.879C152.379 155.879 152.309 155.86 152.247 155.823L1.16423 65.2759C1.04534 65.2047 0.972754 65.0754 0.973146 64.9366C0.973538 64.7974 1.0477 64.6692 1.16737 64.5992L109.756 0.88937C109.878 0.818203 110.027 0.817417 110.149 0.887404L265.609 90.0104C265.731 90.0804 265.806 90.2106 265.806 90.3513C265.806 90.4921 265.732 90.6222 265.61 90.6926L152.644 155.827C152.584 155.862 152.516 155.879 152.449 155.879ZM2.13573 64.9421L152.453 155.03L264.626 90.3529L109.957 1.68321L2.13573 64.9421Z" fill="#082930"/>
<path d="M10.3276 82.1519L137.846 158.577L10.3276 82.1519Z" fill="white"/>
<path d="M137.845 158.97C137.777 158.97 137.707 158.952 137.644 158.914L10.126 82.4892C9.94004 82.3779 9.87962 82.1365 9.99066 81.9502C10.1021 81.7638 10.343 81.7032 10.529 81.8145L138.047 158.239C138.233 158.35 138.294 158.592 138.183 158.778C138.109 158.901 137.979 158.969 137.846 158.969L137.845 158.97Z" fill="#082930"/>
<path d="M20.3784 97.1777L128.992 162.272L20.3784 97.1777Z" fill="white"/>
<path d="M128.992 162.666C128.923 162.666 128.854 162.648 128.791 162.61L20.1768 97.5153C19.9908 97.404 19.9304 97.1626 20.0414 96.9762C20.1529 96.7898 20.3938 96.7289 20.5798 96.8406L129.193 161.935C129.379 162.046 129.44 162.288 129.329 162.474C129.255 162.597 129.125 162.666 128.992 162.666Z" fill="#082930"/>
<path d="M11.5894 100.751L137.846 176.42L11.5894 100.751Z" fill="white"/>
<path d="M137.845 176.813C137.776 176.813 137.707 176.794 137.644 176.757L11.3877 101.089C11.2018 100.977 11.1413 100.736 11.2524 100.549C11.3638 100.363 11.6047 100.302 11.7907 100.414L138.047 176.082C138.233 176.193 138.294 176.435 138.183 176.621C138.109 176.744 137.979 176.813 137.845 176.813H137.845Z" fill="#082930"/>
<path d="M128.944 1.229L20.355 64.9385L171.438 155.486L284.403 90.3516L128.944 1.229Z" fill="white"/>
<path d="M171.438 155.879C171.369 155.879 171.299 155.86 171.237 155.823L20.154 65.2759C20.0351 65.2047 19.9625 65.0754 19.9629 64.9366C19.9633 64.7974 20.0374 64.6692 20.1571 64.5992L128.746 0.88937C128.868 0.818203 129.018 0.817417 129.14 0.887404L284.599 90.0104C284.721 90.0804 284.797 90.2106 284.797 90.3513C284.797 90.4921 284.722 90.6222 284.6 90.6926L171.634 155.827C171.574 155.862 171.506 155.879 171.438 155.879ZM21.1259 64.9421L171.443 155.03L283.616 90.3529L128.947 1.68321L21.1259 64.9421Z" fill="#082930"/>
<path d="M160.596 134.788C160.461 134.788 160.33 134.718 160.257 134.594C160.147 134.407 160.21 134.166 160.397 134.056L210.67 104.489C210.857 104.379 211.097 104.442 211.207 104.629C211.317 104.816 211.254 105.057 211.068 105.167L160.794 134.734C160.732 134.77 160.664 134.788 160.596 134.788H160.596Z" fill="#082930"/>
<path d="M144.269 125.132C144.135 125.132 144.004 125.063 143.931 124.938C143.821 124.751 143.884 124.51 144.07 124.4L232.456 72.4229C232.643 72.3128 232.883 72.3757 232.993 72.5629C233.103 72.75 233.04 72.991 232.854 73.1011L144.468 125.078C144.405 125.114 144.337 125.132 144.27 125.132H144.269Z" fill="#082930"/>
<path d="M128.055 115.542C127.92 115.542 127.789 115.473 127.716 115.348C127.606 115.161 127.669 114.92 127.856 114.81L215.943 63.0137C216.13 62.9036 216.37 62.9665 216.48 63.1537C216.59 63.3408 216.527 63.5819 216.34 63.692L128.253 115.488C128.191 115.524 128.122 115.542 128.055 115.542Z" fill="#082930"/>
<path d="M143.453 80.4573C143.318 80.4573 143.187 80.3877 143.114 80.2631C143.004 80.0755 143.067 79.8349 143.254 79.7248L193.367 50.2642C193.553 50.1541 193.794 50.217 193.904 50.4042C194.014 50.5917 193.951 50.8323 193.764 50.9424L143.651 80.4031C143.589 80.4396 143.52 80.4573 143.453 80.4573Z" fill="#082930"/>
<path d="M106.07 102.434C105.935 102.434 105.804 102.364 105.731 102.24C105.621 102.052 105.684 101.812 105.871 101.702L131.999 86.3413C132.186 86.2312 132.426 86.2942 132.536 86.4813C132.645 86.6689 132.583 86.9095 132.396 87.0196L106.268 102.38C106.206 102.416 106.137 102.434 106.07 102.434Z" fill="#082930"/>
<path d="M146.827 59.7441C146.692 59.7441 146.561 59.6745 146.488 59.5498C146.378 59.3627 146.44 59.1216 146.628 59.0119L177.19 41.0469C177.375 40.9368 177.616 40.9997 177.727 41.1873C177.836 41.3744 177.774 41.6154 177.587 41.7251L147.025 59.6902C146.962 59.7268 146.894 59.7445 146.827 59.7445V59.7441Z" fill="#082930"/>
<path d="M90.1849 93.0393C90.0503 93.0393 89.9193 92.9697 89.8459 92.8451C89.7364 92.6579 89.7988 92.4169 89.986 92.3072L139.023 63.482C139.209 63.3719 139.45 63.4348 139.56 63.6223C139.67 63.8095 139.608 64.0505 139.42 64.1602L90.3831 92.9854C90.3207 93.022 90.2524 93.0397 90.1849 93.0397V93.0393Z" fill="#082930"/>
<path d="M74.4071 83.708C74.2725 83.708 74.1415 83.6384 74.0681 83.5138C73.9586 83.3266 74.021 83.0856 74.2082 82.9759L161.121 31.8916C161.307 31.7815 161.548 31.8444 161.658 32.032C161.767 32.2191 161.705 32.4602 161.518 32.5699L74.6052 83.6541C74.5429 83.6907 74.4746 83.7084 74.4071 83.7084V83.708Z" fill="#082930"/>
<path d="M138.661 18.9113L52.0374 69.8206L43.1699 64.8405L129.506 14.105L138.661 18.9113Z" fill="#59C1BB"/>
<path d="M52.0377 70.2137C51.9718 70.2137 51.9055 70.1972 51.8459 70.1634L42.9783 65.1833C42.8555 65.1145 42.779 64.9851 42.7778 64.844C42.7767 64.7028 42.8504 64.5723 42.9717 64.5011L129.308 13.7656C129.424 13.6968 129.568 13.6933 129.689 13.7566L138.844 18.5629C138.97 18.6293 139.05 18.7591 139.054 18.9018C139.057 19.0445 138.983 19.1782 138.86 19.2502L52.2363 70.1598C52.1751 70.196 52.1064 70.2137 52.0377 70.2137ZM43.9589 64.8326L52.0334 69.3672L137.853 18.9305L129.517 14.5543L43.9589 64.833V64.8326Z" fill="#082930"/>
<path d="M70.412 127.164L52.1963 137.851L63.7617 144.782V144.792L82.143 134.194L70.412 127.164Z" fill="#09F1C7"/>
<path d="M63.7616 145.186C63.6937 145.186 63.6258 145.168 63.5654 145.133C63.5395 145.118 63.5156 145.1 63.494 145.08L51.9953 138.188C51.8764 138.117 51.8038 137.988 51.8042 137.849C51.8046 137.71 51.8787 137.582 51.9984 137.512L70.2137 126.824C70.3373 126.752 70.4907 126.753 70.6135 126.826L82.3445 133.857C82.4642 133.928 82.5368 134.058 82.5356 134.198C82.5344 134.337 82.4595 134.466 82.339 134.535L63.9578 145.133C63.8974 145.168 63.8299 145.186 63.762 145.186H63.7616ZM52.9668 137.854L63.7742 144.332L81.3671 134.188L70.4095 127.621L52.9664 137.855L52.9668 137.854Z" fill="#082930"/>
<path d="M32.7059 95.7783L14.4902 106.465L26.0557 113.397V113.407L44.4365 102.809L32.7059 95.7783Z" fill="#BDD9E1"/>
<path d="M26.0559 113.8C25.9881 113.8 25.9202 113.783 25.8598 113.748C25.8335 113.732 25.8095 113.715 25.788 113.695L14.2892 106.803C14.1703 106.732 14.0978 106.603 14.0981 106.464C14.0985 106.325 14.1727 106.197 14.2924 106.127L32.508 95.4395C32.632 95.3671 32.7854 95.3679 32.9079 95.4414L44.6385 102.472C44.7581 102.544 44.8307 102.673 44.8296 102.813C44.8284 102.952 44.7534 103.081 44.633 103.15L26.2517 113.749C26.1913 113.784 26.1238 113.8 26.0559 113.8ZM15.2611 106.469L26.0685 112.946L43.6615 102.802L32.7038 96.2353L15.2611 106.469Z" fill="#082930"/>
<path d="M119.637 175.397L127.769 170.439L116.047 163.404L107.885 168.446L119.637 175.397Z" fill="#59C1BB"/>
<path d="M119.637 175.79C119.568 175.79 119.499 175.772 119.438 175.736L107.686 168.785C107.567 168.715 107.494 168.588 107.493 168.45C107.492 168.312 107.562 168.183 107.679 168.111L115.84 163.069C115.965 162.992 116.122 162.991 116.248 163.066L127.97 170.101C128.088 170.172 128.161 170.299 128.161 170.437C128.161 170.575 128.09 170.703 127.973 170.774L119.841 175.733C119.778 175.771 119.707 175.79 119.637 175.79L119.637 175.79ZM108.645 168.439L119.634 174.939L127.01 170.441L116.049 163.864L108.645 168.439Z" fill="#082930"/>
</g>
<defs>
<clipPath id="clip0_834_8569">
<rect width="284" height="202" fill="white" transform="translate(0.795898 0.601074)"/>
</clipPath>
</defs>
</svg>
