<?xml version="1.0" encoding="UTF-8"?>
<svg id="Layer_1" data-name="Layer 1" xmlns="http://www.w3.org/2000/svg" xmlns:xlink="http://www.w3.org/1999/xlink" version="1.1" viewBox="0 0 294.32 184.3">
  <defs>
    <style>
      .cls-1 {
        fill: url(#linear-gradient);
      }

      .cls-1, .cls-2 {
        stroke-width: 0px;
      }

      .cls-2 {
        fill: #45515c;
      }
    </style>
    <linearGradient id="linear-gradient" x1="172.02" y1="83.34" x2="108.59" y2="54.06" gradientUnits="userSpaceOnUse">
      <stop offset="0" stop-color="#0effc7"/>
      <stop offset=".24" stop-color="#1af1c4"/>
      <stop offset=".68" stop-color="#3ccdbf"/>
      <stop offset="1" stop-color="#59b0bb"/>
    </linearGradient>
  </defs>
  <g>
    <path class="cls-2" d="M25.64,122.59c-14.04,0-23.84,9.86-23.84,23.97s9.8,23.97,23.84,23.97,23.84-9.86,23.84-23.97-9.8-23.97-23.84-23.97ZM25.64,164.67c-10.72,0-17.92-7.28-17.92-18.11s7.2-18.11,17.92-18.11,17.98,7.28,17.98,18.11-7.23,18.11-17.98,18.11Z"/>
    <path class="cls-2" d="M72.88,134.17c-5.3,0-9.95,2-13.14,5.56l-.28-4.74h-5.04v47.37h5.67v-17.04c3.23,3.34,7.75,5.21,12.79,5.21,10.29,0,17.77-7.66,17.77-18.21s-7.47-18.15-17.77-18.15ZM72.5,139.71c7.46,0,12.48,5.07,12.48,12.6s-5.01,12.67-12.48,12.67-12.54-5.09-12.54-12.67,5.16-12.6,12.54-12.6Z"/>
    <path class="cls-2" d="M112.34,134.17c-10.46,0-17.77,7.46-17.77,18.15s7.28,18.21,17.71,18.21c7.65,0,14.07-4.12,16.75-10.75l.55-1.35-6.2-.1-.28.56c-1.99,3.91-5.93,6.16-10.81,6.16-6.33,0-10.88-3.97-11.85-10.21h29.59l.02-.98c.14-5.95-1.7-11.18-5.16-14.73-3.17-3.25-7.51-4.96-12.55-4.96ZM112.34,139.65c6.28,0,10.76,3.79,11.93,9.96h-23.84c.98-6.09,5.55-9.96,11.9-9.96Z"/>
    <path class="cls-2" d="M152.2,134.17c-4.67,0-8.74,1.85-11.55,5.16l-.22-4.34h-5.05v34.71h5.67v-17.96c0-7.2,4.3-12.04,10.71-12.04,5.99,0,9.57,4.19,9.57,11.21v18.78h5.67v-19.1c0-9.99-5.81-16.44-14.79-16.44Z"/>
    <rect class="cls-2" x="173.52" y="122.69" width="5.67" height="47.02"/>
    <path class="cls-2" d="M201.36,134.17c-7.4,0-13.06,4.07-14.76,10.62l-.33,1.25h5.74l.23-.68c1.21-3.56,4.72-5.78,9.18-5.78,5.5,0,9.06,3.16,9.06,8.05v1.34h-13.43c-7.37,0-12.14,4.12-12.14,10.49s5.24,10.75,13.34,10.75c5.15,0,9.55-1.63,12.64-4.65l.28,4.14h4.97v-22.26c0-7.82-6.08-13.28-14.79-13.28ZM198.38,164.92c-4.81,0-7.8-2.11-7.8-5.52,0-3.11,2.65-5.2,6.59-5.2h13.37v.39c0,5.98-5.12,10.33-12.16,10.33Z"/>
    <path class="cls-2" d="M238.3,134.17c-4.67,0-8.74,1.85-11.55,5.16l-.22-4.34h-5.05v34.71h5.67v-17.96c0-7.2,4.3-12.04,10.71-12.04,5.99,0,9.57,4.19,9.57,11.21v18.78h5.67v-19.1c0-9.99-5.81-16.44-14.79-16.44Z"/>
    <path class="cls-2" d="M292.69,153.86c.14-5.95-1.7-11.18-5.16-14.73-3.17-3.25-7.51-4.96-12.55-4.96-10.46,0-17.77,7.46-17.77,18.15s7.28,18.21,17.71,18.21c7.65,0,14.07-4.12,16.75-10.75l.55-1.35-6.2-.1-.28.56c-1.99,3.91-5.93,6.16-10.81,6.16-6.33,0-10.88-3.97-11.85-10.21h29.59l.02-.98ZM274.99,139.65c6.28,0,10.76,3.79,11.93,9.96h-23.84c.98-6.09,5.55-9.96,11.9-9.96Z"/>
  </g>
  <path class="cls-2" d="M135.15,10.21l-42.73,73.53c-6.53,11.23-1.19,20.43,11.87,20.43h85.46c11.19,0,17.72-9.28,12.17-19.34-2.5-4.54-5.19-8.99-7.78-13.48-8.51-14.74-17.02-29.48-25.53-44.22-3.41-5.9-6.81-11.8-10.22-17.71-6.56-10.42-16.87-10.18-23.24.78Z"/>
  <path class="cls-1" d="M149.58,88.2c-1.8-2.31-3.37-5.01-3.36-7.94.03-12.22,19.86-17.74,27.18-24.58,2.87-2.68,5.18-6.24,5.91-10.03l-9.85-17.07c-2.48-1.64-5.15-3.03-7.83-4.34-6.11-2.98-18.77-7.75-28.64-10.33l-1.86,3.21c.74.37,1.47.74,2.2,1.11,4.56,2.31,9.14,4.68,13,8.08,1.5,1.32,2.93,2.86,3.45,4.79.75,2.74-.53,5.71-2.53,7.73-7.19,7.27-20.07,9.35-29.28,12.92-3.15,1.22-6.28,2.55-9.31,4.05l-16.24,27.94c-6.53,11.23-1.19,20.43,11.87,20.43h71.74c-2.57-.7-5.14-1.55-7.75-2.6-7.19-2.89-13.92-7.26-18.7-13.37Z"/>
</svg>