<svg width="219" height="145" viewBox="0 0 219 145" fill="none" xmlns="http://www.w3.org/2000/svg">
<g clip-path="url(#clip0_806_3413)">
<path d="M64.9202 37.5089C64.9202 37.5089 71.6754 22.852 86.303 26.4604C98.0877 29.3673 100.267 47.5369 110.855 54.0826C119.623 59.5033 133.23 60.7287 140.573 60.4185C163.458 59.4519 174.983 47.9345 196.708 51.5553C202.53 52.5256 211.139 57.9318 208.23 65.2605C205.228 72.8276 216.433 72.9887 216.433 72.9887L217.459 46.0716C217.981 42.6246 217.873 37.712 215.586 32.7299C211.559 23.9605 203.043 20.5939 201.176 20.2277C179.563 15.99 163.458 29.0089 140.573 29.9756C133.23 30.2858 120.794 30.3863 114.085 22.5591C111.116 19.0945 106.307 4.71862 94.522 1.81172C79.894 -1.79663 57.0435 9.77037 57.0435 9.77037L64.9202 37.5089Z" fill="#BDD9E1" stroke="#082930" stroke-miterlimit="10" stroke-linecap="round" stroke-linejoin="round"/>
<path d="M216.433 75.4385C210.602 91.9315 184.224 102.774 184.224 102.774V77.2296C184.224 77.2296 209.228 65.8352 216.433 49.8942C216.805 49.0709 217.206 47.7438 217.459 46.0718L217.717 66.649C217.717 66.6493 218.113 70.6891 216.433 75.4385Z" fill="#59C1BB" stroke="#082930" stroke-miterlimit="10" stroke-linecap="round" stroke-linejoin="round"/>
<path d="M176.735 74.5659L143.157 93.9911L143.143 121.045L188.962 94.7126L188.185 78.3365L182.207 74.5467C180.509 73.581 178.427 73.5886 176.735 74.5659Z" fill="white" stroke="#082930" stroke-miterlimit="10" stroke-linecap="round" stroke-linejoin="round"/>
<path d="M188.963 99.9471V80.1146C188.963 78.2474 186.941 77.0807 185.324 78.0151L143.158 102.389L142.909 129.669L186.222 104.691C187.918 103.713 188.963 101.904 188.963 99.9471Z" fill="#BDD9E1" stroke="#082930" stroke-miterlimit="10" stroke-linecap="round" stroke-linejoin="round"/>
<path d="M168.39 93.2621L179.902 86.6084C181.518 85.674 183.54 86.8407 183.54 88.7079V88.9234C183.54 90.8807 182.496 92.6892 180.8 93.667L169.015 100.028C167.677 100.75 166.053 99.7816 166.053 98.2609V97.3132C166.053 95.6423 166.944 94.0982 168.39 93.2621Z" fill="white" stroke="#082930" stroke-miterlimit="10" stroke-linecap="round" stroke-linejoin="round"/>
<path d="M170.543 103.241L179.606 98.0024C180.879 97.2665 182.471 98.185 182.471 99.6552V99.8251C182.471 101.366 181.648 102.79 180.313 103.56L171.035 108.568C169.982 109.137 168.703 108.374 168.703 107.177V106.43C168.703 105.115 169.404 103.899 170.543 103.241Z" fill="white" stroke="#082930" stroke-miterlimit="10" stroke-linecap="round" stroke-linejoin="round"/>
<path d="M57.9551 6.13819L24.3772 25.5634L24.3623 52.6178L70.1822 26.2849L69.4043 9.90882L63.4267 6.11871C61.7285 5.15329 59.646 5.16091 57.9551 6.13819Z" fill="white" stroke="#082930" stroke-miterlimit="10" stroke-linecap="round" stroke-linejoin="round"/>
<path d="M70.182 31.5199V11.6873C70.182 9.82015 68.1602 8.65349 66.5435 9.58785L24.3771 33.9616L24.1287 61.2422L67.4417 36.2635C69.1372 35.2856 70.182 33.4772 70.182 31.5199Z" fill="#082930" stroke="#082930" stroke-miterlimit="10" stroke-linecap="round" stroke-linejoin="round"/>
<path d="M142.507 63.8525L33.3588 1.796C29.6801 -0.295277 25.113 2.36167 25.113 6.59323V62.0535C25.113 65.0527 26.7221 67.8213 29.3279 69.3058L59.1437 86.2933C60.3401 86.975 61.7473 87.2167 63.0921 86.9214C64.7729 86.5521 66.7671 85.636 67.0862 83.377C67.485 80.5535 68.1134 71.0409 75.1946 71.0409C80.8583 71.0409 83.1408 76.708 82.5197 87.4889C81.9973 96.5578 82.6473 99.6611 89.6195 103.733L134.932 129.492C140.536 132.678 147.493 128.63 147.493 122.184V72.4228C147.493 68.8775 145.589 65.6049 142.507 63.8525Z" fill="white" stroke="#082930" stroke-miterlimit="10" stroke-linecap="round" stroke-linejoin="round"/>
<path d="M117.764 143.762L142.909 129.67L144.027 128.89C146.011 127.507 147.255 125.294 147.407 122.88L147.493 121.507V72.423V72.0504C147.493 70.1963 146.899 68.3906 145.799 66.8984L118.338 83.287L117.764 143.762Z" fill="#082930" stroke="#082930" stroke-miterlimit="10" stroke-linecap="round" stroke-linejoin="round"/>
<path d="M4.84888 14.9872L28.582 1.46956C29.7919 0.953518 31.1525 0.915157 32.3898 1.3627L32.6857 1.46956L141.858 63.5407C142.75 64.0373 143.746 64.7436 144.539 65.3863C145.59 66.2372 146.186 67.4699 146.186 67.4699L122.362 81.0442C122.362 81.0442 121.344 79.3819 120.236 78.4841C119.28 77.7089 118.067 77.1664 116.887 76.4585C88.3326 59.3304 23.7915 23.7575 9.21653 15.1699C7.21537 13.9907 4.84888 14.9872 4.84888 14.9872Z" fill="white" stroke="#082930" stroke-miterlimit="10" stroke-linecap="round" stroke-linejoin="round"/>
<path d="M118.695 77.3994L9.54647 15.3429C5.86779 13.2516 1.30103 15.9083 1.30103 20.1401V75.6004C1.30103 78.5996 2.91005 81.3683 5.51584 82.8528L35.3316 99.8402C36.5281 100.522 37.9353 100.764 39.2801 100.468C40.9609 100.099 42.9551 99.1829 43.2742 96.9239C43.673 94.1004 44.3014 84.5878 51.3826 84.5878C57.0463 84.5878 59.3288 90.2549 58.7077 101.036C58.1852 110.105 58.8353 113.208 65.8075 117.28L111.12 143.039C116.724 146.225 123.681 142.177 123.681 135.731V85.9697C123.681 82.4241 121.777 79.1519 118.695 77.3994Z" fill="white" stroke="#082930" stroke-miterlimit="10" stroke-linecap="round" stroke-linejoin="round"/>
<path d="M65.3649 64.8271L47.954 54.9282C47.5607 54.7047 47.3162 54.2886 47.3116 53.8365L47.272 49.7145C47.2626 48.7351 48.3184 48.114 49.1697 48.5981L66.6202 58.5195C67.0172 58.7454 67.2626 59.1668 67.2626 59.6238V63.7232C67.2629 64.6971 66.2116 65.3085 65.3649 64.8271Z" fill="#09F1C7" stroke="#082930" stroke-miterlimit="10" stroke-linecap="round" stroke-linejoin="round"/>
</g>
<defs>
<clipPath id="clip0_806_3413">
<rect width="217.066" height="144" fill="white" transform="translate(0.996582 0.601074)"/>
</clipPath>
</defs>
</svg>
